<svg xmlns="http://www.w3.org/2000/svg" xmlns:xlink="http://www.w3.org/1999/xlink" width="60" zoomAndPan="magnify" viewBox="0 0 45 68.249996" height="91" preserveAspectRatio="xMidYMid meet" version="1.0"><defs><g/><clipPath id="ce7dd195c2"><path d="M 6.378906 18.476562 L 38.621094 18.476562 L 38.621094 50.714844 L 6.378906 50.714844 Z M 6.378906 18.476562 " clip-rule="nonzero"/></clipPath><clipPath id="7c518463bf"><path d="M 22.5 18.476562 C 13.597656 18.476562 6.378906 25.695312 6.378906 34.597656 C 6.378906 43.5 13.597656 50.714844 22.5 50.714844 C 31.402344 50.714844 38.621094 43.5 38.621094 34.597656 C 38.621094 25.695312 31.402344 18.476562 22.5 18.476562 Z M 22.5 18.476562 " clip-rule="nonzero"/></clipPath></defs><g clip-path="url(#ce7dd195c2)"><g clip-path="url(#7c518463bf)"><path fill="#38b6ff" d="M 6.378906 18.476562 L 38.621094 18.476562 L 38.621094 50.714844 L 6.378906 50.714844 Z M 6.378906 18.476562 " fill-opacity="1" fill-rule="nonzero"/></g></g><g fill="#ffffff" fill-opacity="1"><g transform="translate(13.076406, 45.781928)"><g><path d="M 17.9375 0 L 17.9375 -23.1875 L 0.519531 -23.1875 L 0.519531 -17.867188 L 1.667969 -17.867188 L 1.667969 0 L 6.328125 0 L 6.328125 -17.867188 L 12.132812 -17.867188 L 12.132812 0 Z M 17.9375 0 "/></g></g></g></svg>